<?xml version="1.0" standalone="no"?>
<!DOCTYPE svg PUBLIC "-//W3C//DTD SVG 20010904//EN"
 "http://www.w3.org/TR/2001/REC-SVG-20010904/DTD/svg10.dtd">
<svg version="1.0" xmlns="http://www.w3.org/2000/svg"
 width="512.000000pt" height="512.000000pt" viewBox="0 0 512.000000 512.000000"
 preserveAspectRatio="xMidYMid meet">

<g transform="translate(0.000000,512.000000) scale(0.100000,-0.100000)"
fill="#E11D48" stroke="none">
<path d="M985 3740 c-614 -123 -1028 -669 -974 -1283 28 -323 192 -633 438
-827 224 -177 487 -270 761 -270 248 0 468 67 672 207 l81 55 1166 -2 c1285
-3 1219 -6 1389 60 279 108 501 360 574 655 31 127 31 323 0 449 -75 300 -292
547 -579 658 -164 64 -103 61 -1384 59 l-1166 -3 -81 55 c-143 98 -303 163
-471 192 -114 20 -313 18 -426 -5z m430 -305 c181 -48 326 -134 447 -264 158
-170 238 -376 238 -611 0 -424 -278 -773 -696 -877 -98 -24 -295 -24 -398 1
-275 64 -496 244 -616 499 -113 240 -111 536 5 768 130 260 367 442 642 494
96 18 292 13 378 -10z m1436 -474 l24 -19 3 -321 3 -321 90 0 c88 0 92 -1 121
-30 25 -26 29 -36 24 -63 -12 -61 -31 -67 -198 -67 -82 0 -158 4 -168 10 -36
19 -40 63 -40 411 0 341 4 381 37 407 25 18 77 15 104 -7z m509 -1 c19 -19 20
-33 20 -400 0 -367 -1 -381 -20 -400 -26 -26 -80 -26 -111 -1 l-24 19 0 382 0
382 24 19 c31 25 85 25 111 -1z m267 -2 c11 -13 58 -132 104 -265 46 -134 86
-240 90 -235 3 4 41 113 84 242 43 132 87 245 98 258 41 44 137 12 137 -47 0
-11 -52 -178 -116 -372 -126 -382 -134 -399 -199 -399 -46 0 -71 14 -89 48
-23 46 -246 696 -246 718 0 12 9 33 21 48 27 35 86 37 116 4z m1038 -3 c16
-15 25 -36 25 -55 0 -19 -9 -40 -25 -55 -23 -24 -30 -25 -140 -25 l-115 0 0
-90 0 -90 105 0 c99 0 107 -2 130 -25 16 -15 25 -36 25 -55 0 -19 -9 -40 -25
-55 -23 -23 -31 -25 -130 -25 l-105 0 0 -90 0 -90 115 0 c110 0 117 -1 140
-25 16 -15 25 -36 25 -55 0 -19 -9 -40 -25 -55 -24 -25 -27 -25 -195 -25
l-172 0 -29 29 -29 29 0 360 0 360 26 31 26 31 174 0 c172 0 175 0 199 -25z"/>
<path d="M985 2975 l-25 -24 0 -391 0 -391 25 -24 c14 -15 36 -25 53 -25 35 0
57 15 337 223 232 172 249 190 227 248 -9 21 -334 273 -497 384 -48 32 -89 32
-120 0z"/>
</g>
</svg>
